<svg width="38" height="37" viewBox="0 0 38 37" fill="none" xmlns="http://www.w3.org/2000/svg">
    <path d="M21.8446 11.7729C23.7358 11.7729 25.4863 12.5686 26.8338 13.9019C28.1728 15.2281 29.1131 17.0895 29.3924 19.2305L30.4052 27.0203C30.6739 29.0825 30.1877 31.0753 29.1899 32.6285C28.1835 34.1912 26.659 35.3119 24.853 35.6225C24.7081 35.6464 24.5652 35.6656 24.4181 35.6799L24.0194 35.7181L23.5034 35.7635L23.0066 35.8065L22.529 35.8448L22.1836 35.871L21.9576 35.8878L21.7379 35.9021L21.5226 35.9165L21.3115 35.9284L21.0045 35.9451L20.706 35.9595L20.4181 35.9714L20.0514 35.9857L19.787 35.9929L19.5354 35.9977H19.3712L19.1367 36.0001H18.9022L18.738 35.9977L18.4864 35.9929L18.3116 35.9881L17.9512 35.9762L17.5717 35.9595L17.2732 35.9451L16.9662 35.9284L16.7551 35.9165L16.5397 35.9021L16.3201 35.8878L16.0941 35.871L15.7487 35.8448L15.2711 35.8065L14.7743 35.7635L14.2583 35.7181L13.8596 35.6799C12.0409 35.5055 10.4524 34.5043 9.35859 33.018C8.27119 31.5437 7.67418 29.5914 7.82343 27.5126C7.83622 27.3477 7.85115 27.1828 7.87247 27.0179L8.88525 19.2282C9.16456 17.0872 10.1048 15.2257 11.4438 13.8996C12.7914 12.5662 14.1085 12.0001 15.9998 12.0001L21.8531 11.7705L21.8446 11.7729Z" fill="white" stroke="#1E1E1E"/>
    <path fill-rule="evenodd" clip-rule="evenodd" d="M15.4271 23.896C16.1127 23.896 16.6686 25.32 16.6686 27.0765C16.6686 28.833 16.1127 30.257 15.4271 30.257C14.7414 30.257 14.1855 28.833 14.1855 27.0765C14.1855 25.32 14.7414 23.896 15.4271 23.896ZM22.8762 23.896C23.5619 23.896 24.1177 25.32 24.1177 27.0765C24.1177 28.833 23.5619 30.257 22.8762 30.257C22.1905 30.257 21.6347 28.833 21.6347 27.0765C21.6347 25.32 22.1905 23.896 22.8762 23.896Z" fill="#1E1E1E"/>
    <path d="M16.0338 0.358923C19.7991 -0.478622 25.7927 -0.182737 31.4267 4.9165C37.1597 10.104 37.0693 11.5572 36.9768 14.6187C36.7572 15.9072 36.4644 16.7948 36.1005 17.2816C35.6011 17.9521 34.8756 18.5415 33.9412 19.0307C32.191 19.947 29.6506 20.5292 26.5591 20.7726C23.7496 20.9921 22.1048 20.8752 20.7248 20.775C20.4536 20.7559 17.8056 20.6771 16.389 20.9516C14.9552 21.2283 13.84 21.5982 12.8174 21.9347C11.1037 22.4978 9.63763 22.9679 7.52999 22.8867C5.67853 22.8151 4.2641 22.5622 3.26518 22.0611C2.11986 21.4884 1.44386 20.6127 1.18337 19.36C0.748489 17.2673 0.675292 12.7073 5.84215 6.82305C10.5052 1.51621 15.7754 0.416191 16.0338 0.358923Z" fill="#1E1E1E"/>
    <mask id="mask0_3357_6617" style="mask-type:luminance" maskUnits="userSpaceOnUse" x="0" y="-1" width="39" height="25">
        <path d="M16.0338 0.358923C19.7991 -0.478622 25.7927 -0.182737 31.4267 4.9165C37.1597 10.104 37.0693 11.5572 36.9768 14.6187C36.7572 15.9072 36.4644 16.7948 36.1005 17.2816C35.6011 17.9521 34.8756 18.5415 33.9412 19.0307C32.191 19.947 29.6506 20.5292 26.5591 20.7726C23.7496 20.9921 22.1048 20.8752 20.7248 20.775C20.4536 20.7559 17.8056 20.6771 16.389 20.9516C14.9552 21.2283 13.84 21.5982 12.8174 21.9347C11.1037 22.4978 9.63763 22.9679 7.52999 22.8867C5.67853 22.8151 4.2641 22.5622 3.26518 22.0611C2.11986 21.4884 1.44386 20.6127 1.18337 19.36C0.748489 17.2673 0.675292 12.7073 5.84215 6.82305C10.5052 1.51621 15.7754 0.416191 16.0338 0.358923Z" fill="white" stroke="#1E1E1E" stroke-width="2"/>
    </mask>
    <g mask="url(#mask0_3357_6617)">
        <path fill-rule="evenodd" clip-rule="evenodd" d="M20.6112 10.8246C23.1907 10.8246 25.2819 12.3149 25.2819 14.1534C25.2819 15.9918 23.1907 17.4822 20.6112 17.4822C18.0316 17.4822 15.9404 15.9918 15.9404 14.1534C15.9404 12.3149 18.0316 10.8246 20.6112 10.8246ZM33.2346 4.50701C35.8564 4.50701 37.9818 6.85104 37.9818 9.74255C37.9818 12.6341 35.8564 14.9781 33.2346 14.9781C30.6129 14.9781 28.4875 12.6341 28.4875 9.74255C28.4875 6.85104 30.6129 4.50701 33.2346 4.50701ZM6.88771 1.89404C10.1491 1.89404 12.793 4.80994 12.793 8.40689C12.793 12.0038 10.1491 14.9197 6.88771 14.9197C3.62631 14.9197 0.982422 12.0038 0.982422 8.40689C0.982422 4.80994 3.62631 1.89404 6.88771 1.89404Z" fill="white"/>
    </g>
</svg>
