<?xml version="1.0" encoding="UTF-8"?>
<svg width="20px" height="18px" viewBox="0 0 20 18" version="1.1" xmlns="http://www.w3.org/2000/svg" xmlns:xlink="http://www.w3.org/1999/xlink">
    <title>icon-Warn@1x</title>
    <g id="页面-1" stroke="none" stroke-width="1" fill="none" fill-rule="evenodd">
        <g id="ckbdapps_dapps" transform="translate(-540.000000, -55.000000)" fill-rule="nonzero">
            <g id="免责" transform="translate(510.000000, 50.000000)">
                <g id="icon-Warn" transform="translate(30.000000, 5.000000)">
                    <path d="M18.8886676,17.7778908 L1.11077683,17.7778908 C0.712440968,17.7778908 0.345771971,17.5651116 0.147437377,17.2201095 C-0.0503416583,16.8751073 -0.0492305401,16.4506601 0.15132629,16.106769 L9.04027168,0.551114614 C9.23916183,0.210001335 9.60471971,0 9.99972222,0 C10.3947247,0 10.7602826,0.210001335 10.9597283,0.551114614 L19.8486737,16.106769 C20.0492305,16.4506601 20.0503417,16.8751073 19.8525626,17.2201095 C19.6547836,17.5651116 19.2864479,17.7778908 18.8886676,17.7778908 Z" id="路径" fill="#FFC107"></path>
                    <path d="M8.88860405,14.5234256 C8.88860405,14.3739803 8.91471532,14.2373127 8.968049,14.1089786 C9.02027155,13.9823111 9.09527203,13.8723104 9.19193931,13.7800876 C9.28693991,13.6867537 9.40416288,13.6139754 9.53860818,13.5617529 C9.6741646,13.5106414 9.82638779,13.483419 9.99638887,13.483419 C10.1663899,13.483419 10.3197243,13.5106414 10.4563918,13.5617529 C10.5952816,13.6139754 10.7125045,13.6867537 10.8075051,13.7800876 C10.904728,13.8723104 10.9797284,13.9823111 11.0313954,14.1089786 C11.0847291,14.2373127 11.1108404,14.3739803 11.1108404,14.5234256 C11.1108404,14.6734266 11.0847291,14.8100941 11.0313954,14.9345394 C10.9791729,15.0595402 10.9041724,15.1673186 10.8075051,15.2612081 C10.7125045,15.3534309 10.5952816,15.4256536 10.4563918,15.4789873 C10.3197243,15.5300987 10.1663899,15.5556544 9.99638887,15.5556544 C9.82583223,15.5556544 9.6741646,15.5300987 9.53860818,15.4784317 C9.40416288,15.425098 9.28693991,15.3528754 9.19193931,15.2606526 C9.09471647,15.1667631 9.01971599,15.0589846 8.968049,14.9339838 C8.91471532,14.8095386 8.88860405,14.672871 8.88860405,14.5234256 M10.8219497,12.2222999 L9.1702725,12.2222999 L8.93638213,5.55559087 L11.0552845,5.55559087 L10.8219497,12.2222999 Z" id="形状" fill="#5D4037"></path>
                </g>
            </g>
        </g>
    </g>
</svg>