<?xml version="1.0" encoding="UTF-8"?>
<svg width="24px" height="16px" viewBox="0 0 24 16" version="1.1" xmlns="http://www.w3.org/2000/svg" xmlns:xlink="http://www.w3.org/1999/xlink">
    <title>icons8-china@1x</title>
    <g id="seekdid" stroke="none" stroke-width="1" fill="none" fill-rule="evenodd">
        <g id="seekdid_数据监测_dark" transform="translate(-1588.000000, -22.000000)" fill-rule="nonzero">
            <g id="head" transform="translate(300.000000, 0.000000)">
                <g id="icons8-china" transform="translate(1288.000000, 22.000000)">
                    <polygon id="路径" fill="#FF3D00" points="0 0 0 8 0 16 24 16 24 8 24 0"></polygon>
                    <g id="编组" transform="translate(1.636364, 1.053867)" fill="#FFEB3B">
                        <polygon id="路径" points="2.72727273 1.3408 3.37145455 3.3408 5.45454545 3.3408 3.76909091 4.4752 4.41272727 6.4128 2.72727273 5.21546667 1.04181818 6.4128 1.68545455 4.4752 0 3.3408 2.08309091 3.3408"></polygon>
                        <polygon id="路径" points="6.804 -1.89478063e-15 6.99709091 0.6 7.62218182 0.6 7.11654545 0.9392 7.30963636 1.52106667 6.804 1.1616 6.29836364 1.52106667 6.49145455 0.9392 5.98581818 0.6 6.61090909 0.6"></polygon>
                        <polygon id="路径" points="6.81818182 6.94613333 7.01127273 7.54613333 7.63636364 7.54613333 7.13072727 7.88586667 7.32381818 8.46773333 6.81818182 8.10826667 6.31254545 8.46773333 6.50563636 7.88586667 6 7.54613333 6.62509091 7.54613333"></polygon>
                        <polygon id="路径" points="9 2.14613333 9.19309091 2.74613333 9.81818182 2.74613333 9.31254545 3.08586667 9.50563636 3.66773333 9 3.30826667 8.49436364 3.66773333 8.68745455 3.08586667 8.18181818 2.74613333 8.80690909 2.74613333"></polygon>
                        <polygon id="路径" points="9 4.8128 9.19309091 5.4128 9.81818182 5.4128 9.31254545 5.75253333 9.50563636 6.3344 9 5.97493333 8.49436364 6.3344 8.68745455 5.75253333 8.18181818 5.4128 8.80690909 5.4128"></polygon>
                    </g>
                </g>
            </g>
        </g>
    </g>
</svg>