<?xml version="1.0" encoding="utf-8"?>
<svg viewBox="0 0 1000 1000" xmlns="http://www.w3.org/2000/svg">
  <path d="M 392.352 394.771 C 398.835 381.485 389.161 366 374.378 366 L 179.083 366 C 171.437 366 164.459 370.36 161.107 377.233 L 53.82 597.233 C 47.341 610.519 57.016 626 71.797 626 L 267.104 626 C 274.749 626 281.725 621.642 285.078 614.771 L 328.955 524.859 C 330.576 521.538 328.158 517.667 324.462 517.667 L 254.913 517.667 C 247.268 517.667 240.292 522.025 236.939 528.895 L 224.012 555.386 C 222.335 558.821 218.847 561 215.025 561 L 169.302 561 C 165.606 561 163.188 557.129 164.809 553.807 L 221.999 436.614 C 223.675 433.179 227.163 431 230.986 431 L 276.708 431 C 280.404 431 282.823 434.871 281.202 438.193 L 267.075 467.141 C 265.455 470.462 267.873 474.333 271.569 474.333 L 341.031 474.333 C 348.676 474.333 355.652 469.975 359.005 463.105 L 392.352 394.771 Z" fill="white" transform="matrix(1, 0, 0, 1, -2.2737367544323206e-13, 0)"/>
  <path d="M 317.582 626 C 313.887 626 311.468 622.13 313.088 618.808 L 433.635 371.617 C 435.311 368.18 438.8 366 442.623 366 L 518.333 366 C 522.028 366 524.447 369.87 522.827 373.192 L 402.28 620.383 C 400.604 623.82 397.115 626 393.292 626 L 317.582 626 Z" fill="white" transform="matrix(1, 0, 0, 1, -2.2737367544323206e-13, 0)"/>
  <path d="M 588.424 511.38 C 584.645 515.392 579.377 517.667 573.866 517.667 L 492.542 517.667 L 529.195 478.757 C 531.957 475.825 534.26 472.492 536.027 468.872 L 583.489 371.614 C 585.165 368.179 588.653 366 592.476 366 L 668.185 366 C 671.881 366 674.299 369.871 672.679 373.193 L 625.987 468.872 C 624.22 472.492 621.917 475.825 619.155 478.757 L 588.424 511.38 Z" fill="white" transform="matrix(1, 0, 0, 1, -2.2737367544323206e-13, 0)"/>
  <path d="M 586.903 626 C 590.594 626 593.013 622.137 591.4 618.816 L 542.282 517.667 L 452.322 517.667 L 501.599 620.327 C 503.264 623.795 506.769 626 510.615 626 L 586.903 626 Z" fill="white" transform="matrix(1, 0, 0, 1, -2.2737367544323206e-13, 0)"/>
  <path fill-rule="evenodd" clip-rule="evenodd" d="M 616.381 611.617 C 613.141 618.26 617.978 626 625.369 626 L 720.209 626 L 804.906 626 C 818.667 626 831.82 620.328 841.266 610.321 L 868.269 581.714 C 880.345 568.92 884.809 550.721 880.023 533.791 L 863.213 474.333 L 934.763 398.423 C 938.127 394.854 940 390.135 940 385.232 C 940 374.61 931.39 366 920.768 366 L 847.003 366 L 748.658 366 C 741.011 366 734.034 370.36 730.682 377.234 L 616.381 611.617 Z M 847.003 366 L 704.003 517.667 L 772.989 517.667 L 720.209 626 L 863.209 474.333 L 794.136 474.333 L 847.003 366 Z" fill="white" transform="matrix(1, 0, 0, 1, -2.2737367544323206e-13, 0)"/>
</svg>