<svg width="901" height="260" viewBox="0 0 901 260" fill="none" xmlns="http://www.w3.org/2000/svg">
<path d="M352.56 28.7713C359.043 15.4854 349.369 0 334.586 0H139.291C131.645 0 124.667 4.36034 121.315 11.2335L14.0285 231.233C7.54956 244.519 17.2237 260 32.0048 260H227.312C234.957 260 241.933 255.642 245.286 248.771L289.163 158.859C290.784 155.538 288.366 151.667 284.67 151.667H215.121C207.476 151.667 200.5 156.025 197.147 162.895L184.22 189.386C182.543 192.821 179.055 195 175.233 195H129.51C125.814 195 123.396 191.129 125.017 187.807L182.207 70.6144C183.883 67.1791 187.371 65 191.194 65H236.916C240.612 65 243.031 68.8714 241.41 72.1928L227.283 101.141C225.663 104.462 228.081 108.333 231.777 108.333H301.239C308.884 108.333 315.86 103.975 319.213 97.1046L352.56 28.7713Z" fill="white"/>
<path d="M277.79 260C274.095 260 271.676 256.13 273.296 252.808L393.843 5.61676C395.519 2.18017 399.008 0 402.831 0H478.541C482.236 0 484.655 3.87024 483.035 7.19162L362.488 254.383C360.812 257.82 357.323 260 353.5 260H277.79Z" fill="white"/>
<path d="M548.632 145.38C544.853 149.392 539.585 151.667 534.074 151.667H452.75L489.403 112.757C492.165 109.825 494.468 106.492 496.235 102.872L543.697 5.61434C545.373 2.17907 548.861 0 552.684 0H628.393C632.089 0 634.507 3.87136 632.887 7.19283L586.195 102.872C584.428 106.492 582.125 109.825 579.363 112.757L548.632 145.38Z" fill="white"/>
<path d="M547.111 260C550.802 260 553.221 256.137 551.608 252.816L502.49 151.667H412.53L461.807 254.327C463.472 257.795 466.977 260 470.823 260H547.111Z" fill="white"/>
<path fill-rule="evenodd" clip-rule="evenodd" d="M576.589 245.617C573.349 252.26 578.186 260 585.577 260H680.417H765.114C778.875 260 792.028 254.328 801.474 244.321L828.477 215.714C840.553 202.92 845.017 184.721 840.231 167.791L823.421 108.333L894.971 32.4226C898.335 28.8541 900.208 24.1355 900.208 19.2317C900.208 8.61033 891.598 0 880.976 0H807.211H708.866C701.219 0 694.242 4.36036 690.89 11.2336L576.589 245.617ZM807.211 0L664.211 151.667H733.197L680.417 260L823.417 108.333H754.344L807.211 0Z" fill="white"/>
</svg>
