<?xml version="1.0" encoding="UTF-8"?>
<svg width="16px" height="16px" viewBox="0 0 16 16" version="1.1" xmlns="http://www.w3.org/2000/svg" xmlns:xlink="http://www.w3.org/1999/xlink">
    <title>icon_verified@2x</title>
    <g id="page-1" stroke="none" stroke-width="1" fill="none" fill-rule="evenodd">
        <g id="ckbdapps_campaign" transform="translate(-718.000000, -797.000000)" fill="#89E3D8" fill-rule="nonzero">
            <g id="Popular" transform="translate(596.000000, 540.000000)">
                <g id="verified" transform="translate(18.000000, 55.000000)">
                    <path d="M112,202 C113.114583,202 114.096354,202.552083 114.700521,203.395833 C114.908854,203.354167 115.122396,203.333333 115.333333,203.333333 C116.1875,203.333333 117.039063,203.658854 117.690104,204.309896 C118.502604,205.122396 118.807292,206.25 118.604167,207.299479 C119.447917,207.903646 120,208.885417 120,210 C120,211.114583 119.447917,212.096354 118.606771,212.700521 C118.807292,213.75 118.502604,214.877604 117.690104,215.690104 C117.039063,216.341146 116.1875,216.666667 115.333333,216.666667 C115.122396,216.666667 114.911459,216.645833 114.700521,216.604167 C114.096354,217.447917 113.114583,218 112,218 C110.885417,218 109.903646,217.447917 109.299479,216.604167 C109.091146,216.645833 108.877604,216.666667 108.666667,216.666667 C107.8125,216.666667 106.960937,216.341146 106.309896,215.690104 C105.497396,214.877604 105.192709,213.75 105.395833,212.700521 C104.552083,212.096354 104,211.114583 104,210 C104,208.885417 104.552083,207.903646 105.393229,207.299479 C105.192709,206.25 105.497396,205.122396 106.309896,204.309896 C106.960937,203.658854 107.8125,203.333333 108.666667,203.333333 C108.877604,203.333333 109.088542,203.354167 109.299479,203.395833 C109.903646,202.552083 110.885417,202 112,202 Z M114.375,208 L111.333333,211.041667 L109.625,209.333333 L108.666667,210.291667 L110.854167,212.479167 L111.333333,212.9375 L111.8125,212.479167 L115.333333,208.958333 L114.375,208 Z" id="icon_verified"></path>
                </g>
            </g>
        </g>
    </g>
</svg>