<?xml version="1.0" encoding="utf-8"?>
<svg viewBox="0 0 100 100" width="100px" height="100px" xmlns="http://www.w3.org/2000/svg" xmlns:bx="https://boxy-svg.com"><defs><bx:export><bx:file format="svg"/></bx:export></defs><rect width="100" height="100" style="fill: rgb(255, 255, 255)"/><path d="M 10.895 42.719 L 8.947 44.682 L 7 42.719 L 8.947 40.755 L 10.895 42.719 Z M 15.647 37.928 L 18.986 41.316 L 20.933 39.352 L 17.594 35.964 L 15.647 34 L 13.699 35.964 L 10.339 39.352 L 12.286 41.316 L 15.647 37.928 Z M 22.346 40.755 L 20.398 42.719 L 22.346 44.682 L 24.294 42.719 L 22.346 40.755 Z M 15.647 47.488 L 12.308 44.121 L 10.339 46.085 L 13.678 49.452 L 15.625 51.416 L 17.573 49.452 L 20.933 46.085 L 18.986 44.121 L 15.647 47.488 Z M 15.647 44.682 L 17.594 42.719 L 15.647 40.755 L 13.699 42.719 L 15.647 44.682 Z M 36.258 44.877 L 36.258 44.855 C 36.258 43.582 35.574 42.934 34.482 42.503 C 35.167 42.114 35.723 41.51 35.723 40.431 L 35.723 40.409 C 35.723 38.899 34.525 37.928 32.598 37.928 L 28.189 37.928 L 28.189 47.488 L 32.705 47.488 C 34.846 47.488 36.258 46.625 36.258 44.877 Z M 33.647 40.798 C 33.647 41.51 33.069 41.812 32.149 41.812 L 30.223 41.812 L 30.223 39.784 L 32.277 39.784 C 33.155 39.784 33.647 40.129 33.647 40.776 L 33.647 40.798 Z M 34.182 44.618 C 34.182 45.33 33.626 45.654 32.705 45.654 L 30.223 45.654 L 30.223 43.56 L 32.641 43.56 C 33.711 43.56 34.182 43.949 34.182 44.596 L 34.182 44.618 Z M 40.625 47.488 L 40.625 37.928 L 38.549 37.928 L 38.549 47.488 L 40.625 47.488 Z M 51.84 47.488 L 51.84 37.928 L 49.786 37.928 L 49.786 43.819 L 45.334 37.928 L 43.407 37.928 L 43.407 47.488 L 45.462 47.488 L 45.462 41.424 L 50.064 47.509 L 51.84 47.509 L 51.84 47.488 Z M 63.398 47.488 L 59.332 37.863 L 57.405 37.863 L 53.339 47.488 L 55.458 47.488 L 56.335 45.351 L 60.338 45.351 L 61.215 47.488 L 63.398 47.488 Z M 59.61 43.496 L 57.084 43.496 L 58.347 40.388 L 59.61 43.496 Z M 73.33 47.488 L 73.33 37.928 L 71.275 37.928 L 71.275 43.819 L 66.823 37.928 L 64.897 37.928 L 64.897 47.488 L 66.951 47.488 L 66.951 41.424 L 71.553 47.509 L 73.33 47.509 L 73.33 47.488 Z M 84.117 45.956 L 82.79 44.596 C 82.041 45.287 81.377 45.718 80.307 45.718 C 78.681 45.718 77.568 44.359 77.568 42.719 L 77.568 42.697 C 77.568 41.057 78.723 39.719 80.307 39.719 C 81.249 39.719 81.998 40.129 82.726 40.798 L 84.053 39.244 C 83.175 38.359 82.105 37.777 80.307 37.777 C 77.396 37.777 75.363 39.999 75.363 42.719 L 75.363 42.74 C 75.363 45.481 77.439 47.661 80.222 47.661 C 82.041 47.661 83.133 47.013 84.117 45.956 Z M 93 47.488 L 93 45.61 L 87.863 45.61 L 87.863 43.603 L 92.336 43.603 L 92.336 41.726 L 87.863 41.726 L 87.863 39.784 L 92.935 39.784 L 92.935 37.906 L 85.787 37.906 L 85.787 47.466 L 93 47.466 L 93 47.488 Z" fill="#F0B90B"/><path d="M 39.107 56.257 C 39.107 53.336 37.035 51.457 33.757 51.457 L 28.205 51.457 L 28.205 65.755 L 30.679 65.755 L 30.679 61.159 L 33.475 61.159 C 36.573 61.159 39.107 59.484 39.107 56.257 Z M 36.593 56.318 C 36.593 57.85 35.426 58.892 33.555 58.892 L 30.679 58.892 L 30.679 53.744 L 33.555 53.744 C 35.406 53.744 36.593 54.623 36.593 56.318 Z" fill="#1E2026"/><path d="M 55.741 58.585 C 55.741 54.541 52.724 51.212 48.399 51.212 C 44.075 51.212 41.017 54.582 41.017 58.626 C 41.017 62.67 44.034 66 48.359 66 C 52.683 66 55.741 62.63 55.741 58.585 Z M 53.146 58.626 C 53.146 61.425 51.195 63.692 48.399 63.692 C 45.603 63.692 43.612 61.384 43.612 58.585 C 43.612 55.787 45.563 53.52 48.359 53.52 C 51.155 53.52 53.146 55.828 53.146 58.626 Z" fill="#1E2026"/><path d="M 72.83 58.585 C 72.83 54.541 69.813 51.212 65.488 51.212 C 61.164 51.212 58.106 54.582 58.106 58.626 C 58.106 62.67 61.124 66 65.448 66 C 69.773 66 72.83 62.63 72.83 58.585 Z M 70.235 58.626 C 70.235 61.425 68.284 63.692 65.488 63.692 C 62.692 63.692 60.701 61.384 60.701 58.585 C 60.701 55.787 62.652 53.52 65.448 53.52 C 68.244 53.52 70.235 55.828 70.235 58.626 Z" fill="#1E2026"/><path d="M 75.819 65.755 L 85.695 65.755 L 85.695 63.467 L 78.293 63.467 L 78.293 51.457 L 75.819 51.457 L 75.819 65.755 Z" fill="#1E2026"/></svg>