<svg width="40" height="40" viewBox="0 0 40 40" fill="none" xmlns="http://www.w3.org/2000/svg">
    <g clip-path="url(#clip0_430_320)">
        <g style="mix-blend-mode:screen">
            <path fill-rule="evenodd" clip-rule="evenodd" d="M37.6026 7.13041C38.3735 10.0075 36.6661 12.9648 33.789 13.7357L2.53245 22.1109C-0.344637 22.8818 -3.30193 21.1744 -4.07284 18.2973C-4.84375 15.4202 -3.13636 12.4629 -0.259271 11.692L30.9973 3.31685C33.8744 2.54593 36.8317 4.25332 37.6026 7.13041Z" fill="url(#paint0_linear_430_320)"/>
        </g>
        <g style="mix-blend-mode:screen">
            <path fill-rule="evenodd" clip-rule="evenodd" d="M5.7126 35.2364C3.60642 33.1302 3.60642 29.7155 5.7126 27.6093L28.594 4.72788C30.7002 2.62171 34.115 2.6217 36.2211 4.72788C38.3273 6.83405 38.3273 10.2488 36.2211 12.355L13.3397 35.2364C11.2336 37.3426 7.81878 37.3426 5.7126 35.2364Z" fill="url(#paint1_linear_430_320)"/>
        </g>
        <g style="mix-blend-mode:screen">
            <path fill-rule="evenodd" clip-rule="evenodd" d="M22.6218 44.9925C19.7447 44.2216 18.0373 41.2643 18.8082 38.3873L27.1834 7.13068C27.9543 4.25359 30.9116 2.5462 33.7887 3.31711C36.6658 4.08802 38.3732 7.04531 37.6023 9.9224L29.2271 41.179C28.4562 44.0561 25.4989 45.7635 22.6218 44.9925Z" fill="url(#paint2_linear_430_320)"/>
        </g>
    </g>
    <defs>
        <linearGradient id="paint0_linear_430_320" x1="32.3888" y1="8.51" x2="1.13223" y2="16.8852" gradientUnits="userSpaceOnUse">
            <stop stop-color="#F3674F"/>
            <stop offset="1" stop-color="#F3674F" stop-opacity="0"/>
        </linearGradient>
        <linearGradient id="paint1_linear_430_320" x1="32.4195" y1="8.55337" x2="9.53808" y2="31.4348" gradientUnits="userSpaceOnUse">
            <stop stop-color="#38E539"/>
            <stop offset="1" stop-color="#38E539" stop-opacity="0"/>
        </linearGradient>
        <linearGradient id="paint2_linear_430_320" x1="32.4091" y1="8.5309" x2="24.0339" y2="39.7875" gradientUnits="userSpaceOnUse">
            <stop stop-color="#0166FF"/>
            <stop offset="1" stop-color="#0166FF" stop-opacity="0"/>
        </linearGradient>
        <clipPath id="clip0_430_320">
            <rect width="40" height="40" fill="white"/>
        </clipPath>
    </defs>
</svg>
