<?xml version="1.0" encoding="utf-8"?>
<svg viewBox="649.761 150.25 300 300" xmlns="http://www.w3.org/2000/svg">
  <rect width="300" height="300" fill="black" style="" x="649.761" y="150.25" transform="matrix(0.9999999999999999, 0, 0, 0.9999999999999999, 0, -7.105427357601002e-15)"/>
  <path d="M 844.868 297.365 C 850.727 297.365 855.477 292.618 855.477 286.764 C 855.477 280.909 850.727 276.163 844.868 276.163 C 839.009 276.163 834.26 280.909 834.26 286.764 C 834.26 292.618 839.009 297.365 844.868 297.365 Z" fill="#8CDD00" transform="matrix(0.9999999999999999, 0, 0, 0.9999999999999999, 0, -7.105427357601002e-15)"/>
  <path d="M 773.448 276.163 C 768.138 276.163 763.827 280.47 763.827 285.777 C 763.827 291.083 768.138 295.391 773.448 295.391 C 778.759 295.391 783.07 291.083 783.07 285.777 C 783.058 280.47 778.759 276.163 773.448 276.163 Z" fill="#8CDD00" transform="matrix(0.9999999999999999, 0, 0, 0.9999999999999999, 0, -7.105427357601002e-15)"/>
  <path d="M 802.445 268.281 L 791.813 318.795 C 790.825 323.512 786.599 326.93 781.782 326.93 C 778.663 326.93 775.761 325.534 773.798 323.115 C 772.269 321.226 771.498 318.904 771.535 316.521 L 752.328 321.479 C 753.147 326.508 755.218 331.31 758.517 335.413 C 764.213 342.476 772.691 346.531 781.77 346.531 C 795.811 346.531 808.093 336.568 810.983 322.838 L 822.471 268.293 L 802.445 268.293 L 802.445 268.281 Z" fill="#C1C1C1" transform="matrix(0.9999999999999999, 0, 0, 0.9999999999999999, 0, -7.105427357601002e-15)"/>
  <path d="M 892.446 232.387 C 886.003 224.457 876.442 219.909 866.219 219.909 L 842.557 219.909 L 838.427 239.498 L 866.219 239.498 C 870.506 239.498 874.516 241.399 877.213 244.733 C 879.91 248.054 880.958 252.373 880.079 256.561 L 875.948 276.163 L 895.986 276.163 L 899.273 260.604 C 901.368 250.605 898.888 240.316 892.446 232.387 Z" fill="#8CDD00" transform="matrix(0.9999999999999999, 0, 0, 0.9999999999999999, 0, -7.105427357601002e-15)"/>
  <path d="M 862.581 339.672 C 859.691 353.39 847.421 363.341 833.392 363.341 L 812.331 363.341 L 808.201 382.931 L 833.392 382.931 C 856.633 382.931 876.983 366.433 881.764 343.703 L 885.232 327.218 L 865.194 327.218 L 862.581 339.672 Z" fill="#8CDD00" transform="matrix(0.9999999999999999, 0, 0, 0.9999999999999999, 0, -7.105427357601002e-15)"/>
  <path d="M 718.167 259.136 L 714.579 276.174 L 734.616 276.174 L 737.35 263.179 C 740.24 249.461 752.51 239.51 766.539 239.51 L 786.721 239.51 L 790.851 219.92 L 766.539 219.92 C 743.298 219.908 722.948 236.405 718.167 259.136 Z" fill="#8CDD00" transform="matrix(0.9999999999999999, 0, 0, 0.9999999999999999, 0, -7.105427357601002e-15)"/>
  <path d="M 722.718 358.095 C 720.021 354.773 718.973 350.454 719.852 346.266 L 723.513 328.903 L 702.319 334.366 L 700.658 342.235 C 698.55 352.235 701.043 362.523 707.485 370.452 C 713.928 378.382 723.489 382.931 733.712 382.931 L 756.495 382.931 L 760.625 363.341 L 733.712 363.341 C 729.425 363.329 725.415 361.428 722.718 358.095 Z" fill="#8CDD00" transform="matrix(0.9999999999999999, 0, 0, 0.9999999999999999, 0, -7.105427357601002e-15)"/>
</svg>